<svg width="760" height="1220" viewBox="0 0 760 1220" fill="none" xmlns="http://www.w3.org/2000/svg">
  <defs>
    <filter id="softInk" x="-20%" y="-20%" width="140%" height="140%">
      <feGaussianBlur stdDeviation="0.55" />
    </filter>
    <radialGradient id="petalA" cx="0" cy="0" r="1" gradientUnits="userSpaceOnUse" gradientTransform="translate(0 0) rotate(90) scale(16 16)">
      <stop offset="0" stop-color="#FFFDFE"/>
      <stop offset="0.54" stop-color="#FBCFE8"/>
      <stop offset="1" stop-color="#F87171"/>
    </radialGradient>
    <radialGradient id="petalB" cx="0" cy="0" r="1" gradientUnits="userSpaceOnUse" gradientTransform="translate(0 0) rotate(90) scale(13 13)">
      <stop offset="0" stop-color="#FFF7FB"/>
      <stop offset="0.56" stop-color="#FDA4AF"/>
      <stop offset="1" stop-color="#FB7185"/>
    </radialGradient>
  </defs>

  <g filter="url(#softInk)" stroke-linecap="round">
    <path d="M58 128C218 117 344 126 465 160" stroke="#2A2322" stroke-opacity="0.8" stroke-width="10"/>
    <path d="M206 123C267 98 334 85 398 88" stroke="#312826" stroke-opacity="0.74" stroke-width="6.5"/>
    <path d="M289 161C354 151 418 154 474 175" stroke="#312826" stroke-opacity="0.67" stroke-width="5"/>

    <path d="M84 362C148 324 221 304 293 305" stroke="#2D2523" stroke-opacity="0.72" stroke-width="8"/>
    <path d="M172 338C208 304 252 278 299 268" stroke="#312826" stroke-opacity="0.65" stroke-width="5.5"/>
    <path d="M222 386C266 375 311 379 349 398" stroke="#312826" stroke-opacity="0.6" stroke-width="4.5"/>

    <path d="M307 434C339 468 363 509 375 556" stroke="#2C2422" stroke-opacity="0.68" stroke-width="7"/>
    <path d="M376 557C404 633 451 716 517 804" stroke="#2C2422" stroke-opacity="0.66" stroke-width="8"/>
    <path d="M515 804C541 839 566 884 577 926" stroke="#2C2422" stroke-opacity="0.62" stroke-width="6"/>

    <path d="M322 500C289 540 257 583 235 634" stroke="#312826" stroke-opacity="0.54" stroke-width="4"/>
    <path d="M251 681C220 721 190 764 170 811" stroke="#312826" stroke-opacity="0.5" stroke-width="3.4"/>

    <path d="M558 880C589 899 619 929 641 963" stroke="#312826" stroke-opacity="0.48" stroke-width="3.4"/>
  </g>

  <g opacity="0.9">
    <circle cx="150" cy="130" r="9" fill="url(#petalA)"/>
    <circle cx="196" cy="122" r="10" fill="url(#petalB)"/>
    <circle cx="247" cy="111" r="11" fill="url(#petalA)"/>
    <circle cx="298" cy="104" r="9" fill="url(#petalB)"/>
    <circle cx="350" cy="104" r="10" fill="url(#petalA)"/>
    <circle cx="402" cy="114" r="9" fill="url(#petalB)"/>
    <circle cx="447" cy="130" r="10" fill="url(#petalA)"/>

    <circle cx="126" cy="334" r="10" fill="url(#petalA)"/>
    <circle cx="167" cy="316" r="9" fill="url(#petalB)"/>
    <circle cx="211" cy="300" r="11" fill="url(#petalA)"/>
    <circle cx="254" cy="291" r="9" fill="url(#petalB)"/>
    <circle cx="294" cy="292" r="10" fill="url(#petalA)"/>
    <circle cx="334" cy="305" r="9" fill="url(#petalB)"/>

    <circle cx="324" cy="420" r="10" fill="url(#petalA)"/>
    <circle cx="352" cy="448" r="8" fill="url(#petalB)"/>
    <circle cx="377" cy="483" r="9" fill="url(#petalA)"/>
    <circle cx="401" cy="529" r="8" fill="url(#petalB)"/>
    <circle cx="425" cy="575" r="9" fill="url(#petalA)"/>
    <circle cx="456" cy="630" r="8" fill="url(#petalB)"/>
    <circle cx="490" cy="688" r="9" fill="url(#petalA)"/>
    <circle cx="523" cy="748" r="8" fill="url(#petalB)"/>
    <circle cx="551" cy="804" r="9" fill="url(#petalA)"/>
    <circle cx="573" cy="858" r="8" fill="url(#petalB)"/>
    <circle cx="592" cy="910" r="9" fill="url(#petalA)"/>
    <circle cx="617" cy="956" r="8" fill="url(#petalB)"/>

    <circle cx="278" cy="550" r="8" fill="url(#petalA)"/>
    <circle cx="246" cy="603" r="7" fill="url(#petalB)"/>
    <circle cx="219" cy="651" r="8" fill="url(#petalA)"/>
    <circle cx="194" cy="700" r="7" fill="url(#petalB)"/>
    <circle cx="172" cy="747" r="8" fill="url(#petalA)"/>

    <circle cx="107" cy="265" r="7" fill="url(#petalA)"/>
    <circle cx="136" cy="239" r="6" fill="url(#petalB)"/>
    <circle cx="479" cy="175" r="7" fill="url(#petalA)"/>
    <circle cx="520" cy="182" r="6" fill="url(#petalB)"/>
  </g>
</svg>
