<svg width="1800" height="1200" viewBox="0 0 1800 1200" fill="none" xmlns="http://www.w3.org/2000/svg">
  <defs>
    <filter id="inkBlur" x="-20%" y="-20%" width="140%" height="140%">
      <feGaussianBlur stdDeviation="0.65" />
    </filter>
    <radialGradient id="blossomA" cx="0" cy="0" r="1" gradientUnits="userSpaceOnUse" gradientTransform="translate(0 0) rotate(90) scale(19 19)">
      <stop offset="0" stop-color="#FFFDFE" />
      <stop offset="0.55" stop-color="#FBCFE8" />
      <stop offset="1" stop-color="#F472B6" />
    </radialGradient>
    <radialGradient id="blossomB" cx="0" cy="0" r="1" gradientUnits="userSpaceOnUse" gradientTransform="translate(0 0) rotate(90) scale(15 15)">
      <stop offset="0" stop-color="#FFF8FB" />
      <stop offset="0.6" stop-color="#FDA4AF" />
      <stop offset="1" stop-color="#FB7185" />
    </radialGradient>
  </defs>

  <g filter="url(#inkBlur)" stroke-linecap="round">
    <path d="M34 280C220 236 388 232 556 266C666 289 760 332 850 401" stroke="#2E2625" stroke-opacity="0.75" stroke-width="11" />
    <path d="M156 234C280 197 405 185 527 209" stroke="#3E312D" stroke-opacity="0.68" stroke-width="7" />
    <path d="M302 211C370 181 447 161 518 165" stroke="#3A2C2A" stroke-opacity="0.66" stroke-width="5" />
    <path d="M372 276C448 258 527 261 594 284" stroke="#382A27" stroke-opacity="0.62" stroke-width="5" />
    <path d="M474 319C550 312 632 327 701 359" stroke="#382A27" stroke-opacity="0.58" stroke-width="4" />

    <path d="M596 296C655 280 723 281 778 302" stroke="#3A2E2B" stroke-opacity="0.63" stroke-width="4.2" />
    <path d="M632 355C688 344 743 348 793 370" stroke="#3A2E2B" stroke-opacity="0.56" stroke-width="3.6" />

    <path d="M699 451C760 458 818 482 868 524" stroke="#332927" stroke-opacity="0.52" stroke-width="4.8" />
    <path d="M742 499C799 509 850 536 891 572" stroke="#332927" stroke-opacity="0.48" stroke-width="3.7" />
    <path d="M806 539C850 548 892 572 926 604" stroke="#332927" stroke-opacity="0.45" stroke-width="3.1" />

    <path d="M1108 126C1234 156 1341 221 1429 300" stroke="#2D2624" stroke-opacity="0.68" stroke-width="10" />
    <path d="M1181 173C1260 188 1338 223 1409 275" stroke="#3B302D" stroke-opacity="0.62" stroke-width="6" />
    <path d="M1260 218C1326 229 1382 258 1433 298" stroke="#3B302D" stroke-opacity="0.58" stroke-width="4.6" />
    <path d="M1370 286C1432 302 1487 336 1534 384" stroke="#372C29" stroke-opacity="0.56" stroke-width="4" />
  </g>

  <g opacity="0.88">
    <circle cx="232" cy="224" r="13" fill="url(#blossomA)" />
    <circle cx="284" cy="206" r="11" fill="url(#blossomB)" />
    <circle cx="337" cy="193" r="12" fill="url(#blossomA)" />
    <circle cx="402" cy="189" r="13" fill="url(#blossomB)" />
    <circle cx="456" cy="196" r="11" fill="url(#blossomA)" />
    <circle cx="506" cy="210" r="10" fill="url(#blossomB)" />
    <circle cx="558" cy="228" r="12" fill="url(#blossomA)" />
    <circle cx="617" cy="255" r="10" fill="url(#blossomB)" />
    <circle cx="673" cy="286" r="11" fill="url(#blossomA)" />
    <circle cx="726" cy="320" r="10" fill="url(#blossomB)" />
    <circle cx="772" cy="357" r="11" fill="url(#blossomA)" />

    <circle cx="620" cy="342" r="9" fill="url(#blossomA)" />
    <circle cx="660" cy="355" r="8" fill="url(#blossomB)" />
    <circle cx="700" cy="367" r="9" fill="url(#blossomA)" />
    <circle cx="742" cy="378" r="8" fill="url(#blossomB)" />

    <circle cx="746" cy="497" r="10" fill="url(#blossomA)" />
    <circle cx="792" cy="510" r="9" fill="url(#blossomB)" />
    <circle cx="835" cy="532" r="10" fill="url(#blossomA)" />
    <circle cx="875" cy="560" r="9" fill="url(#blossomB)" />
    <circle cx="910" cy="592" r="8" fill="url(#blossomA)" />

    <circle cx="1216" cy="170" r="11" fill="url(#blossomA)" />
    <circle cx="1264" cy="189" r="10" fill="url(#blossomB)" />
    <circle cx="1308" cy="209" r="11" fill="url(#blossomA)" />
    <circle cx="1350" cy="235" r="9" fill="url(#blossomB)" />
    <circle cx="1393" cy="264" r="10" fill="url(#blossomA)" />
    <circle cx="1431" cy="297" r="9" fill="url(#blossomB)" />
    <circle cx="1474" cy="333" r="10" fill="url(#blossomA)" />
  </g>
</svg>
